{"asset":{"version":"2.0","generator":"Blockbench 4.12.4 glTF exporter"},"scenes":[{"nodes":[15],"name":"blockbench_export"}],"scene":0,"nodes":[{"translation":[0,1.3250000000000006,-0.0062500000000000056],"name":"cabeca","mesh":0},{"translation":[0,1.0500000000000003,0],"name":"torso","mesh":1},{"translation":[-0.19374999999999998,0.7499999999999997,0],"name":"cuboid","mesh":2},{"translation":[-0.19374999999999998,0.6374999999999997,0.0375],"name":"cuboid","mesh":3},{"translation":[0.25624999999999976,0.8624999999999997,0],"name":"cuboid","mesh":4},{"translation":[0.19374999999999998,0.7499999999999997,0],"name":"cuboid","mesh":5},{"translation":[0.19374999999999998,0.6374999999999997,0.0375],"name":"cuboid","mesh":6},{"translation":[-0.25624999999999976,0.8624999999999997,0],"name":"cuboid","mesh":7},{"translation":[0.08125000000000002,0.29999999999999993,0],"name":"cuboid","mesh":8},{"translation":[-0.08125000000000002,0.037500000000000075,0],"name":"cuboid","mesh":9},{"translation":[0,0.48749999999999993,0],"name":"cuboid","mesh":10},{"translation":[0.08125000000000002,0.037500000000000075,0],"name":"cuboid","mesh":11},{"translation":[-0.08125000000000002,0.29999999999999993,0],"name":"cuboid","mesh":12},{"translation":[0.07500000000000001,0.037500000000000006,-0.00625],"name":"cuboid","mesh":13},{"translation":[-0.07500000000000001,0.037500000000000006,-0.00625],"name":"cuboid","mesh":14},{"children":[0,1,2,3,4,5,6,7,8,9,10,11,12,13,14]}],"bufferViews":[{"buffer":0,"byteOffset":0,"byteLength":6456,"target":34962,"byteStride":12},{"buffer":0,"byteOffset":6456,"byteLength":6456,"target":34962,"byteStride":12},{"buffer":0,"byteOffset":12912,"byteLength":4304,"target":34962,"byteStride":8},{"buffer":0,"byteOffset":17216,"byteLength":1572,"target":34963},{"buffer":0,"byteOffset":18788,"byteLength":6144,"target":34962,"byteStride":12},{"buffer":0,"byteOffset":24932,"byteLength":6144,"target":34962,"byteStride":12},{"buffer":0,"byteOffset":31076,"byteLength":4096,"target":34962,"byteStride":8},{"buffer":0,"byteOffset":35172,"byteLength":1536,"target":34963},{"buffer":0,"byteOffset":36708,"byteLength":1536,"target":34962,"byteStride":12},{"buffer":0,"byteOffset":38244,"byteLength":1536,"target":34962,"byteStride":12},{"buffer":0,"byteOffset":39780,"byteLength":1024,"target":34962,"byteStride":8},{"buffer":0,"byteOffset":40804,"byteLength":384,"target":34963},{"buffer":0,"byteOffset":41188,"byteLength":1536,"target":34962,"byteStride":12},{"buffer":0,"byteOffset":42724,"byteLength":1536,"target":34962,"byteStride":12},{"buffer":0,"byteOffset":44260,"byteLength":1024,"target":34962,"byteStride":8},{"buffer":0,"byteOffset":45284,"byteLength":384,"target":34963},{"buffer":0,"byteOffset":45668,"byteLength":1536,"target":34962,"byteStride":12},{"buffer":0,"byteOffset":47204,"byteLength":1536,"target":34962,"byteStride":12},{"buffer":0,"byteOffset":48740,"byteLength":1024,"target":34962,"byteStride":8},{"buffer":0,"byteOffset":49764,"byteLength":384,"target":34963},{"buffer":0,"byteOffset":50148,"byteLength":1536,"target":34962,"byteStride":12},{"buffer":0,"byteOffset":51684,"byteLength":1536,"target":34962,"byteStride":12},{"buffer":0,"byteOffset":53220,"byteLength":1024,"target":34962,"byteStride":8},{"buffer":0,"byteOffset":54244,"byteLength":384,"target":34963},{"buffer":0,"byteOffset":54628,"byteLength":1536,"target":34962,"byteStride":12},{"buffer":0,"byteOffset":56164,"byteLength":1536,"target":34962,"byteStride":12},{"buffer":0,"byteOffset":57700,"byteLength":1024,"target":34962,"byteStride":8},{"buffer":0,"byteOffset":58724,"byteLength":384,"target":34963},{"buffer":0,"byteOffset":59108,"byteLength":1536,"target":34962,"byteStride":12},{"buffer":0,"byteOffset":60644,"byteLength":1536,"target":34962,"byteStride":12},{"buffer":0,"byteOffset":62180,"byteLength":1024,"target":34962,"byteStride":8},{"buffer":0,"byteOffset":63204,"byteLength":384,"target":34963},{"buffer":0,"byteOffset":63588,"byteLength":768,"target":34962,"byteStride":12},{"buffer":0,"byteOffset":64356,"byteLength":768,"target":34962,"byteStride":12},{"buffer":0,"byteOffset":65124,"byteLength":512,"target":34962,"byteStride":8},{"buffer":0,"byteOffset":65636,"byteLength":192,"target":34963},{"buffer":0,"byteOffset":65828,"byteLength":1152,"target":34962,"byteStride":12},{"buffer":0,"byteOffset":66980,"byteLength":1152,"target":34962,"byteStride":12},{"buffer":0,"byteOffset":68132,"byteLength":768,"target":34962,"byteStride":8},{"buffer":0,"byteOffset":68900,"byteLength":288,"target":34963},{"buffer":0,"byteOffset":69188,"byteLength":1824,"target":34962,"byteStride":12},{"buffer":0,"byteOffset":71012,"byteLength":1824,"target":34962,"byteStride":12},{"buffer":0,"byteOffset":72836,"byteLength":1216,"target":34962,"byteStride":8},{"buffer":0,"byteOffset":74052,"byteLength":456,"target":34963},{"buffer":0,"byteOffset":74508,"byteLength":1152,"target":34962,"byteStride":12},{"buffer":0,"byteOffset":75660,"byteLength":1152,"target":34962,"byteStride":12},{"buffer":0,"byteOffset":76812,"byteLength":768,"target":34962,"byteStride":8},{"buffer":0,"byteOffset":77580,"byteLength":288,"target":34963},{"buffer":0,"byteOffset":77868,"byteLength":768,"target":34962,"byteStride":12},{"buffer":0,"byteOffset":78636,"byteLength":768,"target":34962,"byteStride":12},{"buffer":0,"byteOffset":79404,"byteLength":512,"target":34962,"byteStride":8},{"buffer":0,"byteOffset":79916,"byteLength":192,"target":34963},{"buffer":0,"byteOffset":80108,"byteLength":1536,"target":34962,"byteStride":12},{"buffer":0,"byteOffset":81644,"byteLength":1536,"target":34962,"byteStride":12},{"buffer":0,"byteOffset":83180,"byteLength":1024,"target":34962,"byteStride":8},{"buffer":0,"byteOffset":84204,"byteLength":384,"target":34963},{"buffer":0,"byteOffset":84588,"byteLength":1536,"target":34962,"byteStride":12},{"buffer":0,"byteOffset":86124,"byteLength":1536,"target":34962,"byteStride":12},{"buffer":0,"byteOffset":87660,"byteLength":1024,"target":34962,"byteStride":8},{"buffer":0,"byteOffset":88684,"byteLength":384,"target":34963}],"buffers":[{"byteLength":89068,"uri":"data:application/octet-stream;base64,"}],"accessors":[{"bufferView":0,"componentType":5126,"count":538,"max":[0.12739312648773193,0.2575668692588806,0.14374999701976776],"min":[-0.12739312648773193,-0.3275337517261505,-0.125],"type":"VEC3"},{"bufferView":1,"componentType":5126,"count":538,"max":[1,0.9938991665840149,0.994975745677948],"min":[-0.9903286099433899,-0.99941486120224,-0.9899513125419617],"type":"VEC3"},{"bufferView":2,"componentType":5126,"count":538,"max":[1.6485799551010132,0.9765625],"min":[0,0],"type":"VEC2"},{"bufferView":3,"componentType":5123,"count":786,"max":[537],"min":[0],"type":"SCALAR"},{"bufferView":4,"componentType":5126,"count":512,"max":[0.15000000596046448,0.3125,0.09375],"min":[-0.15000000596046448,-0.25,-0.11562500149011612],"type":"VEC3"},{"bufferView":5,"componentType":5126,"count":512,"max":[1,1,0.9961298704147339],"min":[-1,-1,-1],"type":"VEC3"},{"bufferView":6,"componentType":5126,"count":512,"max":[0.9682105779647827,0.98046875],"min":[0.6371093988418579,0],"type":"VEC2"},{"bufferView":7,"componentType":5123,"count":768,"max":[511],"min":[0],"type":"SCALAR"},{"bufferView":8,"componentType":5126,"count":128,"max":[0.05624999850988388,0.22499999403953552,0.03750000149011612],"min":[-0.0062500000931322575,0.012500000186264515,-0.03125],"type":"VEC3"},{"bufferView":9,"componentType":5126,"count":128,"max":[1,1,0.9805806875228882],"min":[-0.9960376620292664,-1,-1],"type":"VEC3"},{"bufferView":10,"componentType":5126,"count":128,"max":[0.8828125,0.15749704837799072],"min":[0.78125,0.15625],"type":"VEC2"},{"bufferView":11,"componentType":5123,"count":192,"max":[127],"min":[0],"type":"SCALAR"},{"bufferView":12,"componentType":5126,"count":128,"max":[0.05624999850988388,0.125,-0.012500000186264515],"min":[0.01875000074505806,0.03125,-0.07500000298023224],"type":"VEC3"},{"bufferView":13,"componentType":5126,"count":128,"max":[0.9988860487937927,1,0.9815641045570374],"min":[-0.9834312796592712,-0.9615239500999451,-0.783100962638855],"type":"VEC3"},{"bufferView":14,"componentType":5126,"count":128,"max":[0.7710679173469543,0.11732620000839233],"min":[0.765625,0.11328125],"type":"VEC2"},{"bufferView":15,"componentType":5123,"count":192,"max":[127],"min":[0],"type":"SCALAR"},{"bufferView":16,"componentType":5126,"count":128,"max":[-0.05000000074505806,0.40625,0.05000000074505806],"min":[-0.11874999850988388,0.11249999701976776,-0.05000000074505806],"type":"VEC3"},{"bufferView":17,"componentType":5126,"count":128,"max":[0.9926398396492004,0.8581359386444092,1],"min":[-1,-1,-0.9999640583992004],"type":"VEC3"},{"bufferView":18,"componentType":5126,"count":128,"max":[0.9061239957809448,0.8565252423286438],"min":[0.578125,0.06640625],"type":"VEC2"},{"bufferView":19,"componentType":5123,"count":192,"max":[127],"min":[0],"type":"SCALAR"},{"bufferView":20,"componentType":5126,"count":128,"max":[0.0062500000931322575,0.22499999403953552,0.03750000149011612],"min":[-0.05624999850988388,0.012500000186264515,-0.03125],"type":"VEC3"},{"bufferView":21,"componentType":5126,"count":128,"max":[0.9960376620292664,1,0.9805806875228882],"min":[-1,-1,-1],"type":"VEC3"},{"bufferView":22,"componentType":5126,"count":128,"max":[0.8828125,0.15749704837799072],"min":[0.78125,0.15625],"type":"VEC2"},{"bufferView":23,"componentType":5123,"count":192,"max":[127],"min":[0],"type":"SCALAR"},{"bufferView":24,"componentType":5126,"count":128,"max":[-0.01875000074505806,0.125,-0.012500000186264515],"min":[-0.05624999850988388,0.03125,-0.07500000298023224],"type":"VEC3"},{"bufferView":25,"componentType":5126,"count":128,"max":[0.9834312796592712,1,0.9815641045570374],"min":[-0.9988860487937927,-0.9615239500999451,-0.783100962638855],"type":"VEC3"},{"bufferView":26,"componentType":5126,"count":128,"max":[0.7710679173469543,0.11732620000839233],"min":[0.765625,0.11328125],"type":"VEC2"},{"bufferView":27,"componentType":5123,"count":192,"max":[127],"min":[0],"type":"SCALAR"},{"bufferView":28,"componentType":5126,"count":128,"max":[0.11874999850988388,0.40625,0.05000000074505806],"min":[0.05000000074505806,0.11249999701976776,-0.05000000074505806],"type":"VEC3"},{"bufferView":29,"componentType":5126,"count":128,"max":[1,0.8581359386444092,1],"min":[-0.9926398396492004,-1,-0.9999640583992004],"type":"VEC3"},{"bufferView":30,"componentType":5126,"count":128,"max":[0.9061239957809448,0.8565252423286438],"min":[0.578125,0.06640625],"type":"VEC2"},{"bufferView":31,"componentType":5123,"count":192,"max":[127],"min":[0],"type":"SCALAR"},{"bufferView":32,"componentType":5126,"count":64,"max":[0.06875000149011612,0.39375001192092896,0.09375],"min":[-0.08124999701976776,0.10000000149011612,-0.08749999850988388],"type":"VEC3"},{"bufferView":33,"componentType":5126,"count":64,"max":[0.9962653517723083,0.9738888740539551,0.9854567646980286],"min":[-0.9974586963653564,-0.9805806875228882,-0.9954954981803894],"type":"VEC3"},{"bufferView":34,"componentType":5126,"count":64,"max":[0.875,0.66015625],"min":[0.8125,0.59765625],"type":"VEC2"},{"bufferView":35,"componentType":5123,"count":96,"max":[63],"min":[0],"type":"SCALAR"},{"bufferView":36,"componentType":5126,"count":96,"max":[0.0625,0.38749998807907104,0.0625],"min":[-0.0625,0.125,-0.0625],"type":"VEC3"},{"bufferView":37,"componentType":5126,"count":96,"max":[0.9960726499557495,0.9805806875228882,0.9987523555755615],"min":[-0.9891483783721924,-1,-0.9747243523597717],"type":"VEC3"},{"bufferView":38,"componentType":5126,"count":96,"max":[0.90625,0.6640625],"min":[0.84375,0.6015625],"type":"VEC2"},{"bufferView":39,"componentType":5123,"count":144,"max":[95],"min":[0],"type":"SCALAR"},{"bufferView":40,"componentType":5126,"count":152,"max":[0.15000000596046448,0.3125,0.09375],"min":[-0.15000000596046448,0.1875,-0.08749999850988388],"type":"VEC3"},{"bufferView":41,"componentType":5126,"count":152,"max":[1,1,1],"min":[-1,-1,-1],"type":"VEC3"},{"bufferView":42,"componentType":5126,"count":152,"max":[0.91796875,0.65625],"min":[0.85546875,0.59375],"type":"VEC2"},{"bufferView":43,"componentType":5123,"count":228,"max":[151],"min":[0],"type":"SCALAR"},{"bufferView":44,"componentType":5126,"count":96,"max":[0.0625,0.38749998807907104,0.0625],"min":[-0.0625,0.125,-0.0625],"type":"VEC3"},{"bufferView":45,"componentType":5126,"count":96,"max":[0.9891483783721924,0.9805806875228882,0.9987523555755615],"min":[-0.9960726499557495,-1,-0.9747243523597717],"type":"VEC3"},{"bufferView":46,"componentType":5126,"count":96,"max":[0.90625,0.6640625],"min":[0.84375,0.6015625],"type":"VEC2"},{"bufferView":47,"componentType":5123,"count":144,"max":[95],"min":[0],"type":"SCALAR"},{"bufferView":48,"componentType":5126,"count":64,"max":[0.08124999701976776,0.39375001192092896,0.09375],"min":[-0.06875000149011612,0.10000000149011612,-0.08749999850988388],"type":"VEC3"},{"bufferView":49,"componentType":5126,"count":64,"max":[0.9974586963653564,0.9738888740539551,0.9854567646980286],"min":[-0.9962653517723083,-0.9805806875228882,-0.9954954981803894],"type":"VEC3"},{"bufferView":50,"componentType":5126,"count":64,"max":[0.875,0.66015625],"min":[0.8125,0.59765625],"type":"VEC2"},{"bufferView":51,"componentType":5123,"count":96,"max":[63],"min":[0],"type":"SCALAR"},{"bufferView":52,"componentType":5126,"count":128,"max":[0.04374999925494194,0.125,0.05000000074505806],"min":[-0.03750000149011612,0.0625,-0.13124999403953552],"type":"VEC3"},{"bufferView":53,"componentType":5126,"count":128,"max":[1,1,1],"min":[-1,-1,-0.9557790160179138],"type":"VEC3"},{"bufferView":54,"componentType":5126,"count":128,"max":[0.29296875,0.521484375],"min":[0.07900390774011612,0.314453125],"type":"VEC2"},{"bufferView":55,"componentType":5123,"count":192,"max":[127],"min":[0],"type":"SCALAR"},{"bufferView":56,"componentType":5126,"count":128,"max":[0.03750000149011612,0.125,0.05000000074505806],"min":[-0.04374999925494194,0.0625,-0.13124999403953552],"type":"VEC3"},{"bufferView":57,"componentType":5126,"count":128,"max":[1,1,1],"min":[-1,-1,-0.9557790160179138],"type":"VEC3"},{"bufferView":58,"componentType":5126,"count":128,"max":[0.29296875,0.521484375],"min":[0.07900390774011612,0.314453125],"type":"VEC2"},{"bufferView":59,"componentType":5123,"count":192,"max":[127],"min":[0],"type":"SCALAR"}],"materials":[{"pbrMetallicRoughness":{"metallicFactor":0,"roughnessFactor":1,"baseColorTexture":{"index":0}},"alphaMode":"MASK","alphaCutoff":0.05,"doubleSided":true},{"pbrMetallicRoughness":{"metallicFactor":0,"roughnessFactor":1,"baseColorTexture":{"index":1}},"alphaMode":"MASK","alphaCutoff":0.05,"doubleSided":true}],"textures":[{"sampler":0,"source":0,"name":"textcarol.png"},{"sampler":1,"source":1,"name":"3dbody2.png"}],"samplers":[{"magFilter":9728,"minFilter":9728,"wrapS":33071,"wrapT":33071},{"magFilter":9728,"minFilter":9728,"wrapS":33071,"wrapT":33071}],"images":[{"mimeType":"image/png","uri":"data:image/png;base64,"},{"mimeType":"image/png","uri":"data:image/png;base64,"}],"meshes":[{"primitives":[{"mode":4,"attributes":{"POSITION":0,"NORMAL":1,"TEXCOORD_0":2},"indices":3,"material":0}]},{"primitives":[{"mode":4,"attributes":{"POSITION":4,"NORMAL":5,"TEXCOORD_0":6},"indices":7,"material":0}]},{"primitives":[{"mode":4,"attributes":{"POSITION":8,"NORMAL":9,"TEXCOORD_0":10},"indices":11,"material":0}]},{"primitives":[{"mode":4,"attributes":{"POSITION":12,"NORMAL":13,"TEXCOORD_0":14},"indices":15,"material":0}]},{"primitives":[{"mode":4,"attributes":{"POSITION":16,"NORMAL":17,"TEXCOORD_0":18},"indices":19,"material":0}]},{"primitives":[{"mode":4,"attributes":{"POSITION":20,"NORMAL":21,"TEXCOORD_0":22},"indices":23,"material":0}]},{"primitives":[{"mode":4,"attributes":{"POSITION":24,"NORMAL":25,"TEXCOORD_0":26},"indices":27,"material":0}]},{"primitives":[{"mode":4,"attributes":{"POSITION":28,"NORMAL":29,"TEXCOORD_0":30},"indices":31,"material":0}]},{"primitives":[{"mode":4,"attributes":{"POSITION":32,"NORMAL":33,"TEXCOORD_0":34},"indices":35,"material":0}]},{"primitives":[{"mode":4,"attributes":{"POSITION":36,"NORMAL":37,"TEXCOORD_0":38},"indices":39,"material":0}]},{"primitives":[{"mode":4,"attributes":{"POSITION":40,"NORMAL":41,"TEXCOORD_0":42},"indices":43,"material":0}]},{"primitives":[{"mode":4,"attributes":{"POSITION":44,"NORMAL":45,"TEXCOORD_0":46},"indices":47,"material":0}]},{"primitives":[{"mode":4,"attributes":{"POSITION":48,"NORMAL":49,"TEXCOORD_0":50},"indices":51,"material":0}]},{"primitives":[{"mode":4,"attributes":{"POSITION":52,"NORMAL":53,"TEXCOORD_0":54},"indices":55,"material":1}]},{"primitives":[{"mode":4,"attributes":{"POSITION":56,"NORMAL":57,"TEXCOORD_0":58},"indices":59,"material":1}]}]}