{"asset":{"version":"2.0","generator":"Blockbench 4.12.4 glTF exporter"},"scenes":[{"nodes":[4],"name":"blockbench_export"}],"scene":0,"nodes":[{"translation":[0,0.75,0],"name":"cuboid","mesh":0},{"translation":[0.4375,0.375,-0.25],"name":"cuboid","mesh":1},{"translation":[-0.4375,0,-0.21875],"name":"cuboid","mesh":2},{"translation":[-0.3125,0,-0.25625],"name":"cuboid","mesh":3},{"children":[0,1,2,3]}],"bufferViews":[{"buffer":0,"byteOffset":0,"byteLength":2496,"target":34962,"byteStride":12},{"buffer":0,"byteOffset":2496,"byteLength":2496,"target":34962,"byteStride":12},{"buffer":0,"byteOffset":4992,"byteLength":1664,"target":34962,"byteStride":8},{"buffer":0,"byteOffset":6656,"byteLength":624,"target":34963},{"buffer":0,"byteOffset":7280,"byteLength":7476,"target":34962,"byteStride":12},{"buffer":0,"byteOffset":14756,"byteLength":7476,"target":34962,"byteStride":12},{"buffer":0,"byteOffset":22232,"byteLength":4984,"target":34962,"byteStride":8},{"buffer":0,"byteOffset":27216,"byteLength":1856,"target":34963},{"buffer":0,"byteOffset":29072,"byteLength":1056,"target":34962,"byteStride":12},{"buffer":0,"byteOffset":30128,"byteLength":1056,"target":34962,"byteStride":12},{"buffer":0,"byteOffset":31184,"byteLength":704,"target":34962,"byteStride":8},{"buffer":0,"byteOffset":31888,"byteLength":264,"target":34963},{"buffer":0,"byteOffset":32152,"byteLength":1344,"target":34962,"byteStride":12},{"buffer":0,"byteOffset":33496,"byteLength":1344,"target":34962,"byteStride":12},{"buffer":0,"byteOffset":34840,"byteLength":896,"target":34962,"byteStride":8},{"buffer":0,"byteOffset":35736,"byteLength":336,"target":34963}],"buffers":[{"byteLength":36072,"uri":"data:application/octet-stream;base64,"}],"accessors":[{"bufferView":0,"componentType":5126,"count":208,"max":[0.875,0.612500011920929,0.1875],"min":[-0.875,-0.75,-0.24375000596046448],"type":"VEC3"},{"bufferView":1,"componentType":5126,"count":208,"max":[1,1,1],"min":[-1,-1,-1],"type":"VEC3"},{"bufferView":2,"componentType":5126,"count":208,"max":[0.6236094236373901,0.6181640625],"min":[0.013671875,0.04296877980232239],"type":"VEC2"},{"bufferView":3,"componentType":5123,"count":312,"max":[207],"min":[0],"type":"SCALAR"},{"bufferView":4,"componentType":5126,"count":623,"max":[0.28125,0.625,0.0625],"min":[-0.28125,-0.0625,-0.0062500000931322575],"type":"VEC3"},{"bufferView":5,"componentType":5126,"count":623,"max":[1,1,1],"min":[-1,-1,-1],"type":"VEC3"},{"bufferView":6,"componentType":5126,"count":623,"max":[0.9459253549575806,0.9375],"min":[0.3515625,0.021484389901161194],"type":"VEC2"},{"bufferView":7,"componentType":5123,"count":927,"max":[622],"min":[0],"type":"SCALAR"},{"bufferView":8,"componentType":5126,"count":88,"max":[0.25,0.981249988079071,0.03125],"min":[-0.25,0,-0.03750000149011612],"type":"VEC3"},{"bufferView":9,"componentType":5126,"count":88,"max":[1,1,1],"min":[-1,-1,-1],"type":"VEC3"},{"bufferView":10,"componentType":5126,"count":88,"max":[0.610677182674408,0.94921875],"min":[0.365234375,0.671875],"type":"VEC2"},{"bufferView":11,"componentType":5123,"count":132,"max":[87],"min":[0],"type":"SCALAR"},{"bufferView":12,"componentType":5126,"count":112,"max":[0.06875000149011612,0.5062500238418579,0.0625],"min":[-0.06875000149011612,0.4625000059604645,0.012500000186264515],"type":"VEC3"},{"bufferView":13,"componentType":5126,"count":112,"max":[0.9284766912460327,1,1],"min":[-1,-1,-1],"type":"VEC3"},{"bufferView":14,"componentType":5126,"count":112,"max":[0.587890625,0.591796875],"min":[0.384765625,0.3769530951976776],"type":"VEC2"},{"bufferView":15,"componentType":5123,"count":168,"max":[111],"min":[0],"type":"SCALAR"}],"materials":[{"pbrMetallicRoughness":{"metallicFactor":0,"roughnessFactor":1,"baseColorTexture":{"index":0}},"alphaMode":"MASK","alphaCutoff":0.05,"doubleSided":true}],"textures":[{"sampler":0,"source":0,"name":"cores1.png"}],"samplers":[{"magFilter":9728,"minFilter":9728,"wrapS":33071,"wrapT":33071}],"images":[{"mimeType":"image/png","uri":"data:image/png;base64,"}],"meshes":[{"primitives":[{"mode":4,"attributes":{"POSITION":0,"NORMAL":1,"TEXCOORD_0":2},"indices":3,"material":0}]},{"primitives":[{"mode":4,"attributes":{"POSITION":4,"NORMAL":5,"TEXCOORD_0":6},"indices":7,"material":0}]},{"primitives":[{"mode":4,"attributes":{"POSITION":8,"NORMAL":9,"TEXCOORD_0":10},"indices":11,"material":0}]},{"primitives":[{"mode":4,"attributes":{"POSITION":12,"NORMAL":13,"TEXCOORD_0":14},"indices":15,"material":0}]}]}