{"asset":{"version":"2.0","generator":"Blockbench 4.12.4 glTF exporter"},"scenes":[{"nodes":[5],"name":"blockbench_export"}],"scene":0,"nodes":[{"translation":[0,0.75,0],"name":"cuboid","mesh":0},{"translation":[0.9,0.375,-0.25],"name":"cuboid","mesh":1},{"translation":[0,0.375,-0.25],"name":"cuboid","mesh":2},{"translation":[-0.875,0.375,-0.25],"name":"cuboid","mesh":3},{"translation":[0,1.3624999999999998,-0.0625],"name":"cuboid","mesh":4},{"children":[0,1,2,3,4]}],"bufferViews":[{"buffer":0,"byteOffset":0,"byteLength":2496,"target":34962,"byteStride":12},{"buffer":0,"byteOffset":2496,"byteLength":2496,"target":34962,"byteStride":12},{"buffer":0,"byteOffset":4992,"byteLength":1664,"target":34962,"byteStride":8},{"buffer":0,"byteOffset":6656,"byteLength":624,"target":34963},{"buffer":0,"byteOffset":7280,"byteLength":7476,"target":34962,"byteStride":12},{"buffer":0,"byteOffset":14756,"byteLength":7476,"target":34962,"byteStride":12},{"buffer":0,"byteOffset":22232,"byteLength":4984,"target":34962,"byteStride":8},{"buffer":0,"byteOffset":27216,"byteLength":1856,"target":34963},{"buffer":0,"byteOffset":29072,"byteLength":7476,"target":34962,"byteStride":12},{"buffer":0,"byteOffset":36548,"byteLength":7476,"target":34962,"byteStride":12},{"buffer":0,"byteOffset":44024,"byteLength":4984,"target":34962,"byteStride":8},{"buffer":0,"byteOffset":49008,"byteLength":1856,"target":34963},{"buffer":0,"byteOffset":50864,"byteLength":7476,"target":34962,"byteStride":12},{"buffer":0,"byteOffset":58340,"byteLength":7476,"target":34962,"byteStride":12},{"buffer":0,"byteOffset":65816,"byteLength":4984,"target":34962,"byteStride":8},{"buffer":0,"byteOffset":70800,"byteLength":1856,"target":34963},{"buffer":0,"byteOffset":72656,"byteLength":288,"target":34962,"byteStride":12},{"buffer":0,"byteOffset":72944,"byteLength":288,"target":34962,"byteStride":12},{"buffer":0,"byteOffset":73232,"byteLength":192,"target":34962,"byteStride":8},{"buffer":0,"byteOffset":73424,"byteLength":72,"target":34963}],"buffers":[{"byteLength":73496,"uri":"data:application/octet-stream;base64,"}],"accessors":[{"bufferView":0,"componentType":5126,"count":208,"max":[1.5,0.612500011920929,0.1875],"min":[-1.5,-0.75,-0.24375000596046448],"type":"VEC3"},{"bufferView":1,"componentType":5126,"count":208,"max":[1,1,1],"min":[-1,-1,-1],"type":"VEC3"},{"bufferView":2,"componentType":5126,"count":208,"max":[0.6236094236373901,0.3056640923023224],"min":[0.01953125,0.017578132450580597],"type":"VEC2"},{"bufferView":3,"componentType":5123,"count":312,"max":[207],"min":[0],"type":"SCALAR"},{"bufferView":4,"componentType":5126,"count":623,"max":[0.28125,0.625,0.0625],"min":[-0.28125,-0.0625,-0.0062500000931322575],"type":"VEC3"},{"bufferView":5,"componentType":5126,"count":623,"max":[1,1,1],"min":[-1,-1,-1],"type":"VEC3"},{"bufferView":6,"componentType":5126,"count":623,"max":[0.9459253549575806,0.9375],"min":[0,0],"type":"VEC2"},{"bufferView":7,"componentType":5123,"count":927,"max":[622],"min":[0],"type":"SCALAR"},{"bufferView":8,"componentType":5126,"count":623,"max":[0.28125,0.625,0.0625],"min":[-0.28125,-0.0625,-0.0062500000931322575],"type":"VEC3"},{"bufferView":9,"componentType":5126,"count":623,"max":[1,1,1],"min":[-1,-1,-1],"type":"VEC3"},{"bufferView":10,"componentType":5126,"count":623,"max":[0.9459253549575806,0.9375],"min":[0,0],"type":"VEC2"},{"bufferView":11,"componentType":5123,"count":927,"max":[622],"min":[0],"type":"SCALAR"},{"bufferView":12,"componentType":5126,"count":623,"max":[0.28125,0.625,0.0625],"min":[-0.28125,-0.0625,-0.0062500000931322575],"type":"VEC3"},{"bufferView":13,"componentType":5126,"count":623,"max":[1,1,1],"min":[-1,-1,-1],"type":"VEC3"},{"bufferView":14,"componentType":5126,"count":623,"max":[0.9459253549575806,0.9375],"min":[0,0],"type":"VEC2"},{"bufferView":15,"componentType":5123,"count":927,"max":[622],"min":[0],"type":"SCALAR"},{"bufferView":16,"componentType":5126,"count":24,"max":[1.5812499523162842,0.3187499940395355,0.25],"min":[-1.5812499523162842,0,-0.25],"type":"VEC3"},{"bufferView":17,"componentType":5126,"count":24,"max":[0.8542622923851013,1,1],"min":[-0.8542622923851013,-1,-0.6476483941078186],"type":"VEC3"},{"bufferView":18,"componentType":5126,"count":24,"max":[0.9765625,0.65625],"min":[0.015038438141345978,0.216796875],"type":"VEC2"},{"bufferView":19,"componentType":5123,"count":36,"max":[23],"min":[0],"type":"SCALAR"}],"materials":[{"pbrMetallicRoughness":{"metallicFactor":0,"roughnessFactor":1,"baseColorTexture":{"index":0}},"alphaMode":"MASK","alphaCutoff":0.05,"doubleSided":true},{"pbrMetallicRoughness":{"metallicFactor":0,"roughnessFactor":1,"baseColorTexture":{"index":1}},"alphaMode":"MASK","alphaCutoff":0.05,"doubleSided":true}],"textures":[{"sampler":0,"source":0,"name":"cores1.png"},{"sampler":1,"source":1,"name":"telhas.png"}],"samplers":[{"magFilter":9728,"minFilter":9728,"wrapS":33071,"wrapT":33071},{"magFilter":9728,"minFilter":9728,"wrapS":33071,"wrapT":33071}],"images":[{"mimeType":"image/png","uri":"data:image/png;base64,"},{"mimeType":"image/png","uri":"data:image/png;base64,"}],"meshes":[{"primitives":[{"mode":4,"attributes":{"POSITION":0,"NORMAL":1,"TEXCOORD_0":2},"indices":3,"material":0}]},{"primitives":[{"mode":4,"attributes":{"POSITION":4,"NORMAL":5,"TEXCOORD_0":6},"indices":7,"material":0}]},{"primitives":[{"mode":4,"attributes":{"POSITION":8,"NORMAL":9,"TEXCOORD_0":10},"indices":11,"material":0}]},{"primitives":[{"mode":4,"attributes":{"POSITION":12,"NORMAL":13,"TEXCOORD_0":14},"indices":15,"material":0}]},{"primitives":[{"mode":4,"attributes":{"POSITION":16,"NORMAL":17,"TEXCOORD_0":18},"indices":19,"material":1}]}]}