{"asset":{"version":"2.0","generator":"Blockbench 4.12.4 glTF exporter"},"scenes":[{"nodes":[16],"name":"blockbench_export"}],"scene":0,"nodes":[{"rotation":[-0.17364817766693033,0,0,0.984807753012208],"translation":[0,0.68125,0.025],"name":"torso","mesh":0},{"rotation":[-0.17364817766693033,0,0,0.984807753012208],"translation":[0,1.0375,-0.1],"name":"peito","mesh":1},{"rotation":[0.08583165117743129,-0.01513443590133862,0.17298739392508944,0.9810602621904069],"translation":[0.49375,1.3125,-0.23125],"name":"bracod","mesh":2},{"rotation":[0.08583165117743129,0.01513443590133862,-0.17298739392508944,0.9810602621904069],"translation":[-0.49375,1.3125,-0.23125],"name":"bracoe","mesh":3},{"rotation":[0.623541618059803,0.054552840607036954,0.06797137945352479,0.7769168100281078],"translation":[0.6,0.95625,-0.41875],"name":"abracod","mesh":4},{"rotation":[0.623541618059803,-0.054552840607036954,-0.06797137945352479,0.7769168100281078],"translation":[-0.6,0.95625,-0.41875],"name":"abracoe","mesh":5},{"rotation":[0.012234263010219223,0.19219513107935385,0.5027377945386874,0.8427135126128946],"translation":[0.64375,0.8875,-0.871875],"name":"maod","mesh":6},{"rotation":[0.012234263010219223,-0.19219513107935385,-0.5027377945386874,0.8427135126128946],"translation":[-0.64375,0.8875,-0.871875],"name":"maoe","mesh":7},{"rotation":[-0.043619387365336,0,0,0.9990482215818578],"translation":[0,0.575,0.01875],"name":"cintura","mesh":8},{"rotation":[0.3861836083404313,-0.05943934235559575,0.14003031531143825,0.9097915673511586],"translation":[0.21875,0.55625,-0.1125],"name":"pernad","mesh":9},{"rotation":[0.3861836083404313,0.05943934235559575,-0.14003031531143825,0.9097915673511586],"translation":[-0.21875,0.55625,-0.1125],"name":"pernae","mesh":10},{"rotation":[-0.21643961393810288,0,0,0.9762960071199334],"translation":[0.2625,0.275,-0.21875],"name":"canelad","mesh":11},{"rotation":[-0.21643961393810288,0,0,0.9762960071199334],"translation":[-0.2625,0.275,-0.21875],"name":"canelae","mesh":12},{"rotation":[0,-0.13052619222005157,0,0.9914448613738104],"translation":[0.26875,0,-0.11875],"name":"ped","mesh":13},{"rotation":[0,0.13052619222005157,0,0.9914448613738104],"translation":[-0.26875,0,-0.11875],"name":"pee","mesh":14},{"rotation":[-0.08715574274765817,0,0,0.9961946980917455],"translation":[0,1.625,-0.3125],"name":"cabeca","mesh":15},{"children":[0,1,2,3,4,5,6,7,8,9,10,11,12,13,14,15]}],"bufferViews":[{"buffer":0,"byteOffset":0,"byteLength":1920,"target":34962,"byteStride":12},{"buffer":0,"byteOffset":1920,"byteLength":1920,"target":34962,"byteStride":12},{"buffer":0,"byteOffset":3840,"byteLength":1280,"target":34962,"byteStride":8},{"buffer":0,"byteOffset":5120,"byteLength":480,"target":34963},{"buffer":0,"byteOffset":5600,"byteLength":3072,"target":34962,"byteStride":12},{"buffer":0,"byteOffset":8672,"byteLength":3072,"target":34962,"byteStride":12},{"buffer":0,"byteOffset":11744,"byteLength":2048,"target":34962,"byteStride":8},{"buffer":0,"byteOffset":13792,"byteLength":768,"target":34963},{"buffer":0,"byteOffset":14560,"byteLength":2304,"target":34962,"byteStride":12},{"buffer":0,"byteOffset":16864,"byteLength":2304,"target":34962,"byteStride":12},{"buffer":0,"byteOffset":19168,"byteLength":1536,"target":34962,"byteStride":8},{"buffer":0,"byteOffset":20704,"byteLength":576,"target":34963},{"buffer":0,"byteOffset":21280,"byteLength":2304,"target":34962,"byteStride":12},{"buffer":0,"byteOffset":23584,"byteLength":2304,"target":34962,"byteStride":12},{"buffer":0,"byteOffset":25888,"byteLength":1536,"target":34962,"byteStride":8},{"buffer":0,"byteOffset":27424,"byteLength":576,"target":34963},{"buffer":0,"byteOffset":28000,"byteLength":1536,"target":34962,"byteStride":12},{"buffer":0,"byteOffset":29536,"byteLength":1536,"target":34962,"byteStride":12},{"buffer":0,"byteOffset":31072,"byteLength":1024,"target":34962,"byteStride":8},{"buffer":0,"byteOffset":32096,"byteLength":384,"target":34963},{"buffer":0,"byteOffset":32480,"byteLength":1536,"target":34962,"byteStride":12},{"buffer":0,"byteOffset":34016,"byteLength":1536,"target":34962,"byteStride":12},{"buffer":0,"byteOffset":35552,"byteLength":1024,"target":34962,"byteStride":8},{"buffer":0,"byteOffset":36576,"byteLength":384,"target":34963},{"buffer":0,"byteOffset":36960,"byteLength":4056,"target":34962,"byteStride":12},{"buffer":0,"byteOffset":41016,"byteLength":4056,"target":34962,"byteStride":12},{"buffer":0,"byteOffset":45072,"byteLength":2704,"target":34962,"byteStride":8},{"buffer":0,"byteOffset":47776,"byteLength":1008,"target":34963},{"buffer":0,"byteOffset":48784,"byteLength":4056,"target":34962,"byteStride":12},{"buffer":0,"byteOffset":52840,"byteLength":4056,"target":34962,"byteStride":12},{"buffer":0,"byteOffset":56896,"byteLength":2704,"target":34962,"byteStride":8},{"buffer":0,"byteOffset":59600,"byteLength":1008,"target":34963},{"buffer":0,"byteOffset":60608,"byteLength":1920,"target":34962,"byteStride":12},{"buffer":0,"byteOffset":62528,"byteLength":1920,"target":34962,"byteStride":12},{"buffer":0,"byteOffset":64448,"byteLength":1280,"target":34962,"byteStride":8},{"buffer":0,"byteOffset":65728,"byteLength":480,"target":34963},{"buffer":0,"byteOffset":66208,"byteLength":1920,"target":34962,"byteStride":12},{"buffer":0,"byteOffset":68128,"byteLength":1920,"target":34962,"byteStride":12},{"buffer":0,"byteOffset":70048,"byteLength":1280,"target":34962,"byteStride":8},{"buffer":0,"byteOffset":71328,"byteLength":480,"target":34963},{"buffer":0,"byteOffset":71808,"byteLength":1920,"target":34962,"byteStride":12},{"buffer":0,"byteOffset":73728,"byteLength":1920,"target":34962,"byteStride":12},{"buffer":0,"byteOffset":75648,"byteLength":1280,"target":34962,"byteStride":8},{"buffer":0,"byteOffset":76928,"byteLength":480,"target":34963},{"buffer":0,"byteOffset":77408,"byteLength":1920,"target":34962,"byteStride":12},{"buffer":0,"byteOffset":79328,"byteLength":1920,"target":34962,"byteStride":12},{"buffer":0,"byteOffset":81248,"byteLength":1280,"target":34962,"byteStride":8},{"buffer":0,"byteOffset":82528,"byteLength":480,"target":34963},{"buffer":0,"byteOffset":83008,"byteLength":1920,"target":34962,"byteStride":12},{"buffer":0,"byteOffset":84928,"byteLength":1920,"target":34962,"byteStride":12},{"buffer":0,"byteOffset":86848,"byteLength":1280,"target":34962,"byteStride":8},{"buffer":0,"byteOffset":88128,"byteLength":480,"target":34963},{"buffer":0,"byteOffset":88608,"byteLength":4032,"target":34962,"byteStride":12},{"buffer":0,"byteOffset":92640,"byteLength":4032,"target":34962,"byteStride":12},{"buffer":0,"byteOffset":96672,"byteLength":2688,"target":34962,"byteStride":8},{"buffer":0,"byteOffset":99360,"byteLength":1008,"target":34963},{"buffer":0,"byteOffset":100368,"byteLength":4032,"target":34962,"byteStride":12},{"buffer":0,"byteOffset":104400,"byteLength":4032,"target":34962,"byteStride":12},{"buffer":0,"byteOffset":108432,"byteLength":2688,"target":34962,"byteStride":8},{"buffer":0,"byteOffset":111120,"byteLength":1008,"target":34963},{"buffer":0,"byteOffset":112128,"byteLength":5040,"target":34962,"byteStride":12},{"buffer":0,"byteOffset":117168,"byteLength":5040,"target":34962,"byteStride":12},{"buffer":0,"byteOffset":122208,"byteLength":3360,"target":34962,"byteStride":8},{"buffer":0,"byteOffset":125568,"byteLength":1248,"target":34963}],"buffers":[{"byteLength":126816,"uri":"data:application/octet-stream;base64,"}],"accessors":[{"bufferView":0,"componentType":5126,"count":160,"max":[0.25,0.43961626291275024,0.21415625512599945],"min":[-0.25,-0.02500000037252903,-0.203125],"type":"VEC3"},{"bufferView":1,"componentType":5126,"count":160,"max":[0.986393928527832,1,0.9926314353942871],"min":[-0.986393928527832,-0.9402303099632263,-0.9932631254196167],"type":"VEC3"},{"bufferView":2,"componentType":5126,"count":160,"max":[0.14225904643535614,0.1347656399011612],"min":[0.0078125,0.01715531200170517],"type":"VEC2"},{"bufferView":3,"componentType":5123,"count":240,"max":[159],"min":[0],"type":"SCALAR"},{"bufferView":4,"componentType":5126,"count":256,"max":[0.375,0.48124998807907104,0.2266175001859665],"min":[-0.375,0.053949374705553055,-0.25],"type":"VEC3"},{"bufferView":5,"componentType":5126,"count":256,"max":[0.986393928527832,1,0.9991957545280457],"min":[-0.986393928527832,-1,-0.9993395209312439],"type":"VEC3"},{"bufferView":6,"componentType":5126,"count":256,"max":[0.1328125,0.14303822815418243],"min":[0.024399803951382637,0.01367187313735485],"type":"VEC2"},{"bufferView":7,"componentType":5123,"count":384,"max":[255],"min":[0],"type":"SCALAR"},{"bufferView":8,"componentType":5126,"count":192,"max":[0.1510418802499771,0.20000000298023224,0.1510418802499771],"min":[-0.125,-0.40625,-0.13750000298023224],"type":"VEC3"},{"bufferView":9,"componentType":5126,"count":192,"max":[0.9996575713157654,0.9954954981803894,0.9988759756088257],"min":[-1,-0.9486833214759827,-1],"type":"VEC3"},{"bufferView":10,"componentType":5126,"count":192,"max":[0.14795491099357605,0.14348596334457397],"min":[0.006660234183073044,0.006606860551983118],"type":"VEC2"},{"bufferView":11,"componentType":5123,"count":288,"max":[191],"min":[0],"type":"SCALAR"},{"bufferView":12,"componentType":5126,"count":192,"max":[0.125,0.20000000298023224,0.1510418802499771],"min":[-0.1510418802499771,-0.40625,-0.13750000298023224],"type":"VEC3"},{"bufferView":13,"componentType":5126,"count":192,"max":[1,0.9954954981803894,0.9988759756088257],"min":[-0.9996575713157654,-0.9486833214759827,-1],"type":"VEC3"},{"bufferView":14,"componentType":5126,"count":192,"max":[0.14795491099357605,0.14348596334457397],"min":[0.006660234183073044,0.006606860551983118],"type":"VEC2"},{"bufferView":15,"componentType":5123,"count":288,"max":[191],"min":[0],"type":"SCALAR"},{"bufferView":16,"componentType":5126,"count":128,"max":[0.09375,0.1555093675851822,0.11301375180482864],"min":[-0.09375,-0.33050936460494995,-0.09375],"type":"VEC3"},{"bufferView":17,"componentType":5126,"count":128,"max":[1,0.9805806875228882,0.9951533675193787],"min":[-1,-0.9764257669448853,-1],"type":"VEC3"},{"bufferView":18,"componentType":5126,"count":128,"max":[0.12801319360733032,0.1171875074505806],"min":[0.028214648365974426,0.019531231373548508],"type":"VEC2"},{"bufferView":19,"componentType":5123,"count":192,"max":[127],"min":[0],"type":"SCALAR"},{"bufferView":20,"componentType":5126,"count":128,"max":[0.09375,0.1555093675851822,0.11301375180482864],"min":[-0.09375,-0.33050936460494995,-0.09375],"type":"VEC3"},{"bufferView":21,"componentType":5126,"count":128,"max":[1,0.9805806875228882,0.9951533675193787],"min":[-1,-0.9764257669448853,-1],"type":"VEC3"},{"bufferView":22,"componentType":5126,"count":128,"max":[0.12801319360733032,0.1171875074505806],"min":[0.028214648365974426,0.019531231373548508],"type":"VEC2"},{"bufferView":23,"componentType":5123,"count":192,"max":[127],"min":[0],"type":"SCALAR"},{"bufferView":24,"componentType":5126,"count":338,"max":[0.060416873544454575,0.25209811329841614,0.1666668802499771],"min":[-0.15072539448738098,-0.06596500426530838,-0.33847999572753906],"type":"VEC3"},{"bufferView":25,"componentType":5126,"count":338,"max":[0.9990168213844299,1,0.9732847213745117],"min":[-1,-1,-0.9739215970039368],"type":"VEC3"},{"bufferView":26,"componentType":5126,"count":338,"max":[0.56640625,0.13762199878692627],"min":[0.029477449133992195,0.017578132450580597],"type":"VEC2"},{"bufferView":27,"componentType":5123,"count":504,"max":[337],"min":[0],"type":"SCALAR"},{"bufferView":28,"componentType":5126,"count":338,"max":[0.15072539448738098,0.25209811329841614,0.1666668802499771],"min":[-0.060416873544454575,-0.06596500426530838,-0.33847999572753906],"type":"VEC3"},{"bufferView":29,"componentType":5126,"count":338,"max":[1,1,0.9732847213745117],"min":[-0.9990168213844299,-1,-0.9739215970039368],"type":"VEC3"},{"bufferView":30,"componentType":5126,"count":338,"max":[0.56640625,0.13762199878692627],"min":[0.029477449133992195,0.017578132450580597],"type":"VEC2"},{"bufferView":31,"componentType":5123,"count":504,"max":[337],"min":[0],"type":"SCALAR"},{"bufferView":32,"componentType":5126,"count":160,"max":[0.23125000298023224,0.1875,0.18005937337875366],"min":[-0.23125000298023224,0,-0.16875000298023224],"type":"VEC3"},{"bufferView":33,"componentType":5126,"count":160,"max":[0.9898943305015564,1,0.9998172521591187],"min":[-0.9898943305015564,-0.9914571046829224,-0.9821298122406006],"type":"VEC3"},{"bufferView":34,"componentType":5126,"count":160,"max":[0.12091386318206787,0.1314677596092224],"min":[0.02734375,0.0273437462747097],"type":"VEC2"},{"bufferView":35,"componentType":5123,"count":240,"max":[159],"min":[0],"type":"SCALAR"},{"bufferView":36,"componentType":5126,"count":160,"max":[0.08749999850988388,0.19380436837673187,0.15166187286376953],"min":[-0.16249999403953552,-0.26368311047554016,-0.11249999701976776],"type":"VEC3"},{"bufferView":37,"componentType":5126,"count":160,"max":[0.9931119084358215,0.9766311049461365,0.9815354943275452],"min":[-0.9948750138282776,-1,-0.9889591932296753],"type":"VEC3"},{"bufferView":38,"componentType":5126,"count":160,"max":[0.14187094569206238,0.126953125],"min":[0.02026277408003807,0.01367187313735485],"type":"VEC2"},{"bufferView":39,"componentType":5123,"count":240,"max":[159],"min":[0],"type":"SCALAR"},{"bufferView":40,"componentType":5126,"count":160,"max":[0.16249999403953552,0.19380436837673187,0.15166187286376953],"min":[-0.08749999850988388,-0.26368311047554016,-0.11249999701976776],"type":"VEC3"},{"bufferView":41,"componentType":5126,"count":160,"max":[0.9948750138282776,0.9766311049461365,0.9815354943275452],"min":[-0.9931119084358215,-1,-0.9889591932296753],"type":"VEC3"},{"bufferView":42,"componentType":5126,"count":160,"max":[0.14187094569206238,0.126953125],"min":[0.02026277408003807,0.01367187313735485],"type":"VEC2"},{"bufferView":43,"componentType":5123,"count":240,"max":[159],"min":[0],"type":"SCALAR"},{"bufferView":44,"componentType":5126,"count":160,"max":[0.07187499850988388,0.16249999403953552,0.09375],"min":[-0.06875000149011612,-0.21875,-0.06875000149011612],"type":"VEC3"},{"bufferView":45,"componentType":5126,"count":160,"max":[0.9959794878959656,0.9874406456947327,0.9851699471473694],"min":[-1,-1,-0.9843387007713318],"type":"VEC3"},{"bufferView":46,"componentType":5126,"count":160,"max":[0.14020995795726776,0.14054915308952332],"min":[0.015232929028570652,0.009765615686774254],"type":"VEC2"},{"bufferView":47,"componentType":5123,"count":240,"max":[159],"min":[0],"type":"SCALAR"},{"bufferView":48,"componentType":5126,"count":160,"max":[0.06875000149011612,0.16249999403953552,0.09375],"min":[-0.07187499850988388,-0.21875,-0.06875000149011612],"type":"VEC3"},{"bufferView":49,"componentType":5126,"count":160,"max":[1,0.9874406456947327,0.9851699471473694],"min":[-0.9959794878959656,-1,-0.9843387007713318],"type":"VEC3"},{"bufferView":50,"componentType":5126,"count":160,"max":[0.14020995795726776,0.14054915308952332],"min":[0.015232929028570652,0.009765615686774254],"type":"VEC2"},{"bufferView":51,"componentType":5123,"count":240,"max":[159],"min":[0],"type":"SCALAR"},{"bufferView":52,"componentType":5126,"count":336,"max":[0.08124999701976776,0.10625000298023224,0.08124999701976776],"min":[-0.06875000149011612,0,-0.3031249940395355],"type":"VEC3"},{"bufferView":53,"componentType":5126,"count":336,"max":[1,1,1],"min":[-1,-1,-1],"type":"VEC3"},{"bufferView":54,"componentType":5126,"count":336,"max":[0.5759441256523132,0.1464843451976776],"min":[0.0085872458294034,0.017578132450580597],"type":"VEC2"},{"bufferView":55,"componentType":5123,"count":504,"max":[335],"min":[0],"type":"SCALAR"},{"bufferView":56,"componentType":5126,"count":336,"max":[0.06875000149011612,0.10625000298023224,0.08124999701976776],"min":[-0.08124999701976776,0,-0.3031249940395355],"type":"VEC3"},{"bufferView":57,"componentType":5126,"count":336,"max":[1,1,1],"min":[-1,-1,-1],"type":"VEC3"},{"bufferView":58,"componentType":5126,"count":336,"max":[0.5759441256523132,0.1464843451976776],"min":[0.0085872458294034,0.017578132450580597],"type":"VEC2"},{"bufferView":59,"componentType":5123,"count":504,"max":[335],"min":[0],"type":"SCALAR"},{"bufferView":60,"componentType":5126,"count":420,"max":[0.23125000298023224,0.3739806115627289,0.20000000298023224],"min":[-0.23125000298023224,-0.16875000298023224,-0.6625000238418579],"type":"VEC3"},{"bufferView":61,"componentType":5126,"count":420,"max":[1,0.9976193904876709,0.9934813380241394],"min":[-1,-0.9983413815498352,-0.9964870810508728],"type":"VEC3"},{"bufferView":62,"componentType":5126,"count":420,"max":[0.37355831265449524,0.14921283721923828],"min":[0,0],"type":"VEC2"},{"bufferView":63,"componentType":5123,"count":624,"max":[419],"min":[0],"type":"SCALAR"}],"materials":[{"pbrMetallicRoughness":{"metallicFactor":0,"roughnessFactor":1,"baseColorTexture":{"index":0}},"alphaMode":"MASK","alphaCutoff":0.05,"doubleSided":true}],"textures":[{"sampler":0,"source":0,"name":"lobisomem.png"}],"samplers":[{"magFilter":9728,"minFilter":9728,"wrapS":33071,"wrapT":33071}],"images":[{"mimeType":"image/png","uri":"data:image/png;base64,"}],"meshes":[{"primitives":[{"mode":4,"attributes":{"POSITION":0,"NORMAL":1,"TEXCOORD_0":2},"indices":3,"material":0}]},{"primitives":[{"mode":4,"attributes":{"POSITION":4,"NORMAL":5,"TEXCOORD_0":6},"indices":7,"material":0}]},{"primitives":[{"mode":4,"attributes":{"POSITION":8,"NORMAL":9,"TEXCOORD_0":10},"indices":11,"material":0}]},{"primitives":[{"mode":4,"attributes":{"POSITION":12,"NORMAL":13,"TEXCOORD_0":14},"indices":15,"material":0}]},{"primitives":[{"mode":4,"attributes":{"POSITION":16,"NORMAL":17,"TEXCOORD_0":18},"indices":19,"material":0}]},{"primitives":[{"mode":4,"attributes":{"POSITION":20,"NORMAL":21,"TEXCOORD_0":22},"indices":23,"material":0}]},{"primitives":[{"mode":4,"attributes":{"POSITION":24,"NORMAL":25,"TEXCOORD_0":26},"indices":27,"material":0}]},{"primitives":[{"mode":4,"attributes":{"POSITION":28,"NORMAL":29,"TEXCOORD_0":30},"indices":31,"material":0}]},{"primitives":[{"mode":4,"attributes":{"POSITION":32,"NORMAL":33,"TEXCOORD_0":34},"indices":35,"material":0}]},{"primitives":[{"mode":4,"attributes":{"POSITION":36,"NORMAL":37,"TEXCOORD_0":38},"indices":39,"material":0}]},{"primitives":[{"mode":4,"attributes":{"POSITION":40,"NORMAL":41,"TEXCOORD_0":42},"indices":43,"material":0}]},{"primitives":[{"mode":4,"attributes":{"POSITION":44,"NORMAL":45,"TEXCOORD_0":46},"indices":47,"material":0}]},{"primitives":[{"mode":4,"attributes":{"POSITION":48,"NORMAL":49,"TEXCOORD_0":50},"indices":51,"material":0}]},{"primitives":[{"mode":4,"attributes":{"POSITION":52,"NORMAL":53,"TEXCOORD_0":54},"indices":55,"material":0}]},{"primitives":[{"mode":4,"attributes":{"POSITION":56,"NORMAL":57,"TEXCOORD_0":58},"indices":59,"material":0}]},{"primitives":[{"mode":4,"attributes":{"POSITION":60,"NORMAL":61,"TEXCOORD_0":62},"indices":63,"material":0}]}]}