{"asset":{"version":"2.0","generator":"Blockbench 4.12.4 glTF exporter"},"scenes":[{"nodes":[2],"name":"blockbench_export"}],"scene":0,"nodes":[{"translation":[0,0.25,0],"name":"cuboid","mesh":0},{"rotation":[0,-0.5913096483635824,0,0.8064446042674827],"translation":[-0.0375,1.0625,0.01875],"name":"cuboid","mesh":1},{"children":[0,1]}],"bufferViews":[{"buffer":0,"byteOffset":0,"byteLength":8544,"target":34962,"byteStride":12},{"buffer":0,"byteOffset":8544,"byteLength":8544,"target":34962,"byteStride":12},{"buffer":0,"byteOffset":17088,"byteLength":5696,"target":34962,"byteStride":8},{"buffer":0,"byteOffset":22784,"byteLength":2136,"target":34963},{"buffer":0,"byteOffset":24920,"byteLength":35136,"target":34962,"byteStride":12},{"buffer":0,"byteOffset":60056,"byteLength":35136,"target":34962,"byteStride":12},{"buffer":0,"byteOffset":95192,"byteLength":23424,"target":34962,"byteStride":8},{"buffer":0,"byteOffset":118616,"byteLength":8640,"target":34963}],"buffers":[{"byteLength":127256,"uri":"data:application/octet-stream;base64,"}],"accessors":[{"bufferView":0,"componentType":5126,"count":712,"max":[1.5,0.875,0.125],"min":[-1.5,-0.25,-0.125],"type":"VEC3"},{"bufferView":1,"componentType":5126,"count":712,"max":[1,1,1],"min":[-1,-1,-1],"type":"VEC3"},{"bufferView":2,"componentType":5126,"count":712,"max":[0.974609375,0.970703125],"min":[0,0],"type":"VEC2"},{"bufferView":3,"componentType":5123,"count":1068,"max":[711],"min":[0],"type":"SCALAR"},{"bufferView":4,"componentType":5126,"count":2928,"max":[0.45479437708854675,0.11249999701976776,1.38318932056427],"min":[-0.47974124550819397,0,-1.4725724458694458],"type":"VEC3"},{"bufferView":5,"componentType":5126,"count":2928,"max":[0.9800445437431335,0.8944228887557983,0.9464961886405945],"min":[-0.9727337956428528,-1,-0.9981383681297302],"type":"VEC3"},{"bufferView":6,"componentType":5126,"count":2928,"max":[0.326171875,0.771484375],"min":[0.3203125,0.740234375],"type":"VEC2"},{"bufferView":7,"componentType":5123,"count":4320,"max":[2927],"min":[0],"type":"SCALAR"}],"materials":[{"pbrMetallicRoughness":{"metallicFactor":0,"roughnessFactor":1,"baseColorTexture":{"index":0}},"alphaMode":"MASK","alphaCutoff":0.05,"doubleSided":true},{"pbrMetallicRoughness":{"metallicFactor":0,"roughnessFactor":1,"baseColorTexture":{"index":1}},"alphaMode":"MASK","alphaCutoff":0.05,"doubleSided":true}],"textures":[{"sampler":0,"source":0,"name":"lajota1.png"},{"sampler":1,"source":1,"name":"cores1.png"}],"samplers":[{"magFilter":9728,"minFilter":9728,"wrapS":33071,"wrapT":33071},{"magFilter":9728,"minFilter":9728,"wrapS":33071,"wrapT":33071}],"images":[{"mimeType":"image/png","uri":"data:image/png;base64,"},{"mimeType":"image/png","uri":"data:image/png;base64,"}],"meshes":[{"primitives":[{"mode":4,"attributes":{"POSITION":0,"NORMAL":1,"TEXCOORD_0":2},"indices":3,"material":0}]},{"primitives":[{"mode":4,"attributes":{"POSITION":4,"NORMAL":5,"TEXCOORD_0":6},"indices":7,"material":1}]}]}