{"asset":{"version":"2.0","generator":"Blockbench 4.12.4 glTF exporter"},"scenes":[{"nodes":[4],"name":"blockbench_export"}],"scene":0,"nodes":[{"translation":[0,0.25,0],"name":"cuboid","mesh":0},{"rotation":[0,-0.5913096483635824,0,0.8064446042674827],"translation":[-0.0375,1.0625,0.01875],"name":"cuboid","mesh":1},{"rotation":[0,0.5913096483635824,0,0.8064446042674827],"translation":[0.0375,1.0625,0.01875],"name":"cuboid","mesh":2},{"translation":[0,-0.125,0],"name":"cuboid","mesh":3},{"children":[0,1,2,3]}],"bufferViews":[{"buffer":0,"byteOffset":0,"byteLength":7104,"target":34962,"byteStride":12},{"buffer":0,"byteOffset":7104,"byteLength":7104,"target":34962,"byteStride":12},{"buffer":0,"byteOffset":14208,"byteLength":4736,"target":34962,"byteStride":8},{"buffer":0,"byteOffset":18944,"byteLength":1776,"target":34963},{"buffer":0,"byteOffset":20720,"byteLength":25776,"target":34962,"byteStride":12},{"buffer":0,"byteOffset":46496,"byteLength":25776,"target":34962,"byteStride":12},{"buffer":0,"byteOffset":72272,"byteLength":17184,"target":34962,"byteStride":8},{"buffer":0,"byteOffset":89456,"byteLength":6336,"target":34963},{"buffer":0,"byteOffset":95792,"byteLength":25776,"target":34962,"byteStride":12},{"buffer":0,"byteOffset":121568,"byteLength":25776,"target":34962,"byteStride":12},{"buffer":0,"byteOffset":147344,"byteLength":17184,"target":34962,"byteStride":8},{"buffer":0,"byteOffset":164528,"byteLength":6336,"target":34963},{"buffer":0,"byteOffset":170864,"byteLength":35328,"target":34962,"byteStride":12},{"buffer":0,"byteOffset":206192,"byteLength":35328,"target":34962,"byteStride":12},{"buffer":0,"byteOffset":241520,"byteLength":23552,"target":34962,"byteStride":8},{"buffer":0,"byteOffset":265072,"byteLength":8832,"target":34963}],"buffers":[{"byteLength":273904,"uri":"data:application/octet-stream;base64,"}],"accessors":[{"bufferView":0,"componentType":5126,"count":592,"max":[1.5,0.875,0.125],"min":[-1.5,-0.25,-0.125],"type":"VEC3"},{"bufferView":1,"componentType":5126,"count":592,"max":[1,1,1],"min":[-1,-1,-1],"type":"VEC3"},{"bufferView":2,"componentType":5126,"count":592,"max":[0.974609375,0.970703125],"min":[0,0],"type":"VEC2"},{"bufferView":3,"componentType":5123,"count":888,"max":[591],"min":[0],"type":"SCALAR"},{"bufferView":4,"componentType":5126,"count":2148,"max":[0.45479437708854675,0.11249999701976776,1.38318932056427],"min":[-0.47974124550819397,0,-1.4725724458694458],"type":"VEC3"},{"bufferView":5,"componentType":5126,"count":2148,"max":[0.9800445437431335,0.8944228887557983,0.9464961886405945],"min":[-0.9727337956428528,-1,-0.9981383681297302],"type":"VEC3"},{"bufferView":6,"componentType":5126,"count":2148,"max":[0.326171875,0.771484375],"min":[0.3203125,0.740234375],"type":"VEC2"},{"bufferView":7,"componentType":5123,"count":3168,"max":[2147],"min":[0],"type":"SCALAR"},{"bufferView":8,"componentType":5126,"count":2148,"max":[0.47974124550819397,0.11249999701976776,1.38318932056427],"min":[-0.45479437708854675,0,-1.4725724458694458],"type":"VEC3"},{"bufferView":9,"componentType":5126,"count":2148,"max":[0.9727337956428528,0.8944228887557983,0.9464961886405945],"min":[-0.9800445437431335,-1,-0.9981383681297302],"type":"VEC3"},{"bufferView":10,"componentType":5126,"count":2148,"max":[0.326171875,0.771484375],"min":[0.3203125,0.740234375],"type":"VEC2"},{"bufferView":11,"componentType":5123,"count":3168,"max":[2147],"min":[0],"type":"SCALAR"},{"bufferView":12,"componentType":5126,"count":2944,"max":[0.38526785373687744,0.9849812984466553,0.02500000037252903],"min":[-0.38526785373687744,0.13750000298023224,-0.02500000037252903],"type":"VEC3"},{"bufferView":13,"componentType":5126,"count":2944,"max":[1,0.9486833214759827,0.999998927116394],"min":[-1,-0.9486833214759827,-0.9999276399612427],"type":"VEC3"},{"bufferView":14,"componentType":5126,"count":2944,"max":[0.2578125,0.2402343600988388],"min":[0.06640625,0.05664065107703209],"type":"VEC2"},{"bufferView":15,"componentType":5123,"count":4416,"max":[2943],"min":[0],"type":"SCALAR"}],"materials":[{"pbrMetallicRoughness":{"metallicFactor":0,"roughnessFactor":1,"baseColorTexture":{"index":0}},"alphaMode":"MASK","alphaCutoff":0.05,"doubleSided":true},{"pbrMetallicRoughness":{"metallicFactor":0,"roughnessFactor":1,"baseColorTexture":{"index":1}},"alphaMode":"MASK","alphaCutoff":0.05,"doubleSided":true},{"pbrMetallicRoughness":{"metallicFactor":0,"roughnessFactor":1,"baseColorTexture":{"index":2}},"alphaMode":"MASK","alphaCutoff":0.05,"doubleSided":true}],"textures":[{"sampler":0,"source":0,"name":"lajota1.png"},{"sampler":1,"source":1,"name":"cores1.png"},{"sampler":2,"source":2,"name":"portao.png"}],"samplers":[{"magFilter":9728,"minFilter":9728,"wrapS":33071,"wrapT":33071},{"magFilter":9728,"minFilter":9728,"wrapS":33071,"wrapT":33071},{"magFilter":9728,"minFilter":9728,"wrapS":33071,"wrapT":33071}],"images":[{"mimeType":"image/png","uri":"data:image/png;base64,"},{"mimeType":"image/png","uri":"data:image/png;base64,"},{"mimeType":"image/png","uri":"data:image/png;base64,"}],"meshes":[{"primitives":[{"mode":4,"attributes":{"POSITION":0,"NORMAL":1,"TEXCOORD_0":2},"indices":3,"material":0}]},{"primitives":[{"mode":4,"attributes":{"POSITION":4,"NORMAL":5,"TEXCOORD_0":6},"indices":7,"material":1}]},{"primitives":[{"mode":4,"attributes":{"POSITION":8,"NORMAL":9,"TEXCOORD_0":10},"indices":11,"material":1}]},{"primitives":[{"mode":4,"attributes":{"POSITION":12,"NORMAL":13,"TEXCOORD_0":14},"indices":15,"material":2}]}]}